<svg xmlns="http://www.w3.org/2000/svg" viewBox="0 0 640.09 779.06"><defs><style>.cls-1,.cls-2{font-size:93px;}.cls-1{font-family:Voyage-Regular, Voyage;}.cls-2{font-family:MyriadPro-Regular, Myriad Pro;}</style></defs><g id="Layer_2" data-name="Layer 2"><g id="Layer_1-2" data-name="Layer 1"><text class="cls-1" transform="translate(313.49 77.72) rotate(5.02)">E</text><text class="cls-1" transform="translate(355.01 81.12) rotate(16.77)">S</text><text class="cls-1" transform="matrix(0.88, 0.47, -0.47, 0.88, 392.56, 92.17)">P</text><text class="cls-1" transform="translate(427.94 110.44) rotate(38.42)">E</text><text class="cls-1" transform="matrix(0.65, 0.76, -0.76, 0.65, 460.27, 134.24)">C</text><text class="cls-1" transform="matrix(0.54, 0.84, -0.84, 0.54, 500.21, 183.05)">I</text><text class="cls-1" transform="translate(510.27 196.75) rotate(63.27)">A</text><text class="cls-1" transform="translate(533.31 243.02) rotate(70.99)">L</text><text class="cls-1" transform="matrix(0.22, 0.98, -0.98, 0.22, 547.05, 282.68)">L</text><text class="cls-1" transform="translate(554.7 313.83) rotate(82.83)">Y</text><text class="cls-1" transform="translate(560.34 363.86) rotate(87.69)"> </text><text class="cls-1" transform="translate(561.16 381.61) rotate(90.72)"> </text><text class="cls-1" transform="translate(561.6 399.19) rotate(94.67)">E</text><text class="cls-1" transform="translate(558.34 442.52) rotate(101.23)">N</text><text class="cls-1" transform="matrix(-0.3, 0.95, -0.95, -0.3, 549.03, 488.27)">J</text><text class="cls-1" transform="translate(541.37 518.37) rotate(115.31)">O</text><text class="cls-1" transform="translate(514.48 575.21) rotate(124.77)">Y</text><text class="cls-1" transform="matrix(-0.66, 0.75, -0.75, -0.66, 485.36, 615.71)">I</text><text class="cls-1" transform="matrix(-0.75, 0.66, -0.66, -0.75, 475.07, 629.01)">N</text><text class="cls-1" transform="translate(443.19 659.74) rotate(151.57)">G</text><text class="cls-1" transform="matrix(-0.96, 0.3, -0.3, -0.96, 385.31, 688.74)"> </text><text class="cls-1" transform="matrix(-0.98, 0.21, -0.21, -0.98, 368.9, 693.88)"> </text><text class="cls-1" transform="translate(353.77 699.15) rotate(178.37)">D</text><text class="cls-1" transform="matrix(-0.98, -0.21, 0.21, -0.98, 302.49, 700.65)">E</text><text class="cls-1" transform="translate(261.67 692.01) rotate(-156.34)">S</text><text class="cls-1" transform="matrix(-0.85, -0.52, 0.52, -0.85, 225.34, 675.37)">I</text><text class="cls-1" transform="translate(211.83 669.89) rotate(-139.22)">G</text><text class="cls-1" transform="translate(164.51 628.31) rotate(-127.75)">N</text><text class="cls-1" transform="matrix(-0.52, -0.85, 0.85, -0.52, 135.98, 590.22)"> </text><text class="cls-1" transform="translate(125.43 577.21) rotate(-113.6)">&amp;</text><text class="cls-1" transform="translate(96.81 507.14) rotate(-106.18)"> </text><text class="cls-1" transform="translate(91.83 490.03) rotate(-103.43)"> </text><text class="cls-1" transform="translate(87.66 472.66) rotate(-100.74)">I</text><text class="cls-1" transform="matrix(-0.11, -0.99, 0.99, -0.11, 83.9, 455.64)">L</text><text class="cls-1" transform="translate(79.33 413.92) rotate(-90.72)">L</text><text class="cls-1" transform="translate(78.29 374.6) rotate(-83.81)">U</text><text class="cls-1" transform="translate(84.42 320.55) rotate(-76.88)">S</text><text class="cls-1" transform="matrix(0.33, -0.94, 0.94, 0.33, 92.65, 283.42)">T</text><text class="cls-1" transform="translate(107.89 239.81) rotate(-62.75)">R</text><text class="cls-1" transform="translate(128.83 198.19) rotate(-53.79)">A</text><text class="cls-1" transform="translate(151.64 165.71) rotate(-46.27)">T</text><text class="cls-1" transform="translate(184.2 132.79) rotate(-39.17)">I</text><text class="cls-1" transform="translate(193.5 121.55) rotate(-28.98)">O</text><text class="cls-1" transform="matrix(0.97, -0.23, 0.23, 0.97, 251.55, 90.09)">N</text><text class="cls-2" transform="translate(297.13 80.16) rotate(-3.94)"> </text></g></g></svg>